PathFileType	4	(X/Y/Z)	C:/Users/opensim2020/Desktop/walking_exp_matlab/subject01_walking12_straight_01.trc																																																																																																																																		
DataRate	CameraRate	NumFrames	NumMarkers	Units	OrigDataRate	OrigDataStartFrame	OrigNumFrames																																																																																																																														
100	100	7	44	mm	100	763	193																																																																																																																														
Frame#	Time	LFHD			RFHD			LBHD			RBHD			C7			T10			CLAV			STRN			RBAK			LSHO			LUPA			LELB			LFRM			LWRA			LWRB			LFIN			RSHO			RUPA			RELB			RFRM			RWRA			RWRB			RFIN			LASI			RASI			LPSI			RPSI			LTHI			LKNE			LTIB			LANK			LHEE			LTOE			RTHI			RKNE			RTIB			RANK			RHEE			RTOE			*39			*40			*41			*42			*43		
		X1	Y1	Z1	X2	Y2	Z2	X3	Y3	Z3	X4	Y4	Z4	X5	Y5	Z5	X6	Y6	Z6	X7	Y7	Z7	X8	Y8	Z8	X9	Y9	Z9	X10	Y10	Z10	X11	Y11	Z11	X12	Y12	Z12	X13	Y13	Z13	X14	Y14	Z14	X15	Y15	Z15	X16	Y16	Z16	X17	Y17	Z17	X18	Y18	Z18	X19	Y19	Z19	X20	Y20	Z20	X21	Y21	Z21	X22	Y22	Z22	X23	Y23	Z23	X24	Y24	Z24	X25	Y25	Z25	X26	Y26	Z26	X27	Y27	Z27	X28	Y28	Z28	X29	Y29	Z29	X30	Y30	Z30	X31	Y31	Z31	X32	Y32	Z32	X33	Y33	Z33	X34	Y34	Z34	X35	Y35	Z35	X36	Y36	Z36	X37	Y37	Z37	X38	Y38	Z38	X39	Y39	Z39	X40	Y40	Z40	X41	Y41	Z41	X42	Y42	Z42	X43	Y43	Z43	X44	Y44	Z44
																																																																																																																																					
145	1.44	418.73755	1683.53369	-1062.55054	426.12442	1685.08154	-948.18994	304.25415	1634.4364	-1063.2616	309.05502	1634.71191	-942.08154	270.79565	1440.51868	-1022.68988	236.30411	1146.94324	-1016.75928	414.72379	1373.35022	-1023.10492	459.40192	1219.30408	-1032.58081	219.11714	1243.91003	-944.9975	353.41208	1405.7616	-1183.7821	318.87253	1222.89429	-1268.81409	304.15781	1070.30127	-1267.38843	351.53036	965.63586	-1292.89197	444.85709	861.24548	-1279.91333	388.90927	848.9209	-1298.29138	442.98663	783.30078	-1308.22717	352.68152	1397.38782	-870.80731	316.1759	1193.97156	-766.96521	330.33432	1068.15906	-763.91925	378.26718	955.09607	-742.63483	469.13968	851.39966	-779.42743	433.67065	845.94537	-733.5683	481.97153	776.74481	-741.94519	410.85623	939.82404	-1127.36328	409.30365	939.84589	-909.89441	224.75589	950.53564	-1079.43835	224.23412	956.17517	-934.6582	467.83551	626.04657	-1194.68628	483.54654	493.75925	-1185.25439	351.7774	364.33966	-1191.80115	212.25807	195.55026	-1146.2439	165.26289	193.32491	-1087.1272	297.88354	75.72803	-1163.09998	347.98788	604.14087	-871.47021	355.46915	445.70493	-904.16791	291.46573	280.09506	-909.44702	256.00467	80.21452	-973.4278	207.40988	46.83375	-1028.53027	395.01044	37.31723	-970.40234	413.74127	1719.38306	-970.67896	1973.12561	1023.47382	-3101.90552	2012.57837	1022.07721	-3140.67822	NaN	NaN	NaN	NaN	NaN	NaN
146	1.45	429.66763	1683.39844	-1062.15234	436.97348	1685.06482	-947.92096	315.07581	1634.56067	-1063.00745	319.77344	1634.98438	-941.90234	281.0423	1440.76465	-1022.2453	245.88657	1147.19714	-1015.88306	424.85532	1373.18994	-1022.63403	469.21744	1219.06958	-1031.7843	228.95084	1244.38855	-944.06543	363.59219	1405.55127	-1183.30432	327.78284	1222.66321	-1267.94983	311.64105	1070.40137	-1265.72607	356.43411	964.7619	-1291.15039	447.07321	857.93665	-1278.37476	390.74121	847.0791	-1296.37036	442.8768	779.9303	-1306.37366	362.83707	1397.57227	-870.34473	327.04324	1194.32764	-765.81946	342.60931	1068.54333	-762.10376	393.1188	956.31818	-741.12512	486.54666	855.25134	-778.22058	451.19189	848.5343	-732.4632	501.44809	780.83258	-740.67767	420.52945	940.18243	-1125.90027	418.67599	939.46954	-908.72864	234.46655	950.82465	-1079.38049	233.1328	956.50317	-934.6864	481.66104	628.12329	-1194.1051	498.96725	495.99103	-1183.82776	372.08435	361.40411	-1191.01147	239.90181	186.37984	-1146.0365	192.82332	181.4863	-1087.04431	332.07758	72.25278	-1163.8667	353.7507	603.95074	-871.03241	359.55099	445.3367	-903.6925	294.23483	280.09705	-909.25378	256.75351	80.88908	-973.42255	206.97124	48.79913	-1028.84583	395.20746	37.24484	-970.37347	424.69791	1719.30859	-970.46027	1973.08801	1023.46014	-3101.89404	2012.50159	1022.09631	-3140.8606	NaN	NaN	NaN	NaN	NaN	NaN
147	1.46	440.57861	1683.06165	-1062.09473	447.81079	1684.91614	-947.75305	325.88831	1634.5918	-1062.92444	330.54089	1635.14661	-941.70081	291.3833	1440.90234	-1021.7182	255.58553	1147.43445	-1015.2135	434.92828	1372.96326	-1022.16602	479.08987	1218.69861	-1030.97388	238.74565	1244.81128	-943.24915	373.87088	1405.25269	-1182.87427	336.80914	1222.31836	-1267.14771	319.24417	1070.37927	-1264.21716	361.59195	963.96039	-1289.55334	449.43698	854.78027	-1276.88	392.78354	845.40106	-1294.6842	443.04694	776.77771	-1304.6687	372.84399	1397.45081	-870.0528	337.90652	1194.52271	-764.83136	355.0304	1068.86609	-760.4115	407.83572	957.56891	-739.69751	503.96436	858.94916	-776.74988	468.42194	851.14838	-731.39044	520.53088	784.99237	-739.59265	430.35138	940.46722	-1124.88965	427.15167	938.65503	-907.69543	244.08177	950.93445	-1079.34558	242.07001	956.37469	-934.63525	494.70294	630.16071	-1193.23315	513.93378	497.97052	-1182.41272	392.35364	357.84552	-1190.33008	268.48553	176.95178	-1146.10132	221.69983	168.99896	-1087.11084	366.82068	68.68881	-1164.62659	359.63708	603.59851	-870.70392	363.82031	445.10794	-903.40796	296.64389	280.88821	-909.21094	257.2652	81.77345	-973.521	207.63489	49.67689	-1028.85425	395.40836	37.16087	-970.51752	435.59866	1719.21045	-970.32159	1973.1073	1023.50482	-3101.87329	2012.55383	1022.18884	-3140.76514	NaN	NaN	NaN	NaN	NaN	NaN
148	1.47	451.47125	1682.74182	-1062.03674	458.62662	1684.7262	-947.62744	336.65759	1634.48291	-1062.82886	341.19055	1635.17786	-941.5722	301.75806	1440.87488	-1021.55878	265.26651	1147.52441	-1014.65131	445.16336	1372.604	-1021.7348	488.93604	1218.23926	-1030.09521	248.57872	1245.15771	-942.57391	384.20505	1404.79785	-1182.54626	345.92386	1221.8446	-1266.34167	326.92932	1070.33618	-1262.82483	366.92975	963.20166	-1288.07764	452.09128	851.78125	-1275.45642	395.11526	843.85565	-1293.18237	443.45978	773.7951	-1303.04675	383.11322	1397.47913	-869.69067	348.89981	1194.69104	-763.97479	367.25259	1069.14807	-758.83087	422.56281	958.86047	-738.30841	520.67615	862.87219	-775.5191	485.3916	853.79938	-730.48914	539.28833	789.10144	-738.52283	440.19162	940.69891	-1124.03638	436.27094	938.13928	-906.60852	253.72252	950.8783	-1079.36646	250.88092	956.13745	-934.73474	507.7486	631.72711	-1192.58337	528.46918	499.67261	-1180.95679	412.77386	353.84674	-1189.61719	297.71408	167.08998	-1146.17273	251.2056	155.746	-1087.4021	402.35815	65.41279	-1165.42896	365.87225	603.3407	-870.35297	368.23087	444.71167	-902.96912	298.90662	281.38406	-909.41058	257.69263	82.44064	-973.57178	208.84415	50.80968	-1028.94995	395.45251	37.11538	-970.55219	446.46167	1718.81128	-969.77704	1973.12512	1023.62549	-3101.89966	2012.49939	1022.02625	-3140.82178	NaN	NaN	NaN	NaN	NaN	NaN
149	1.48	462.45609	1682.31848	-1061.93188	469.40323	1684.35522	-947.57318	347.51553	1634.26147	-1062.84509	351.892	1635.08289	-941.6131	312.14612	1440.75171	-1021.27496	274.94461	1147.58875	-1014.30573	455.37585	1372.15271	-1021.35321	498.81528	1217.66345	-1029.20068	258.39774	1245.41052	-942.00903	394.67133	1404.28418	-1182.11157	355.17975	1221.29675	-1265.62134	334.80771	1070.26904	-1261.59473	372.41144	962.39673	-1286.7771	455.01517	848.89899	-1274.05054	397.7113	842.34656	-1291.52966	444.27444	771.0885	-1301.45435	393.28415	1397.42041	-869.37988	359.76154	1194.72864	-763.26898	379.66968	1069.35486	-757.29272	437.19965	960.07507	-737.08405	537.55682	866.5899	-774.33173	502.07056	856.32599	-729.64972	557.81647	793.2417	-737.55664	449.97394	940.77527	-1123.30212	445.28644	937.65625	-905.67316	263.34137	950.64368	-1079.37683	259.76376	955.70813	-934.57269	520.1991	633.22974	-1191.82837	542.50244	501.09366	-1179.71741	433.21393	349.56479	-1189.20007	327.72873	156.92329	-1146.29431	281.69058	142.56725	-1087.90759	438.32663	62.35938	-1166.15137	372.29007	603.1073	-870.07281	372.69217	444.19638	-902.78571	302.03677	282.02524	-909.27948	258.49387	83.57013	-973.59869	209.18637	51.9368	-1029.1571	395.67435	37.06242	-970.57922	457.37112	1718.50122	-969.85742	1973.11572	1023.57874	-3101.96948	2012.57458	1022.2594	-3140.63013	NaN	NaN	NaN	NaN	NaN	NaN
150	1.49	473.323	1681.78125	-1062.02393	480.22653	1684.04321	-947.60687	358.33084	1633.91187	-1062.82214	362.65851	1634.95129	-941.63556	322.62704	1440.5636	-1021.13831	284.73648	1147.55127	-1014.22235	465.6431	1371.56433	-1020.95276	508.69891	1216.94568	-1028.31873	268.29947	1245.55762	-941.58759	405.2106	1403.6543	-1181.97339	364.55325	1220.67212	-1264.92346	342.73419	1070.07886	-1260.35388	378.15909	961.62347	-1285.48743	458.00797	846.18872	-1272.69617	400.7485	841.13727	-1290.3927	445.52579	768.59442	-1300.02075	403.48508	1397.33191	-869.07874	370.76282	1194.81262	-762.63141	391.85971	1069.57019	-755.89386	451.65741	961.34222	-735.88348	554.05438	870.24854	-773.37738	518.60034	858.89532	-728.77802	575.81622	797.17072	-736.7713	459.8389	940.72302	-1122.63135	453.827	936.78522	-904.9024	272.97253	950.34802	-1079.39575	268.69327	955.24713	-934.80444	531.96252	634.11426	-1191.12451	556.13391	502.22116	-1178.37659	453.92175	344.77954	-1189.22852	358.48419	146.741	-1146.67383	313.06628	129.5607	-1088.31543	474.82224	59.66056	-1166.75842	378.65045	602.6767	-870.01947	377.30548	443.9761	-902.58051	304.89886	282.42639	-909.38947	258.93216	84.34499	-973.75214	209.64777	53.43933	-1029.18945	396.07043	37.0394	-970.6319	468.24911	1718.10559	-969.96484	1973.18201	1023.57117	-3102.04004	2012.46802	1022.10675	-3140.73999	NaN	NaN	NaN	NaN	NaN	NaN
151	1.5	484.20004	1681.17834	-1062.07336	491.07401	1683.64221	-947.59674	369.15506	1633.46204	-1063.05066	373.39145	1634.62146	-941.73401	333.22644	1440.32031	-1020.95941	294.40088	1147.44482	-1014.19067	475.95435	1370.90808	-1020.48547	518.62878	1216.16675	-1027.44727	278.2265	1245.54822	-941.29474	415.85016	1402.96912	-1181.70898	374.01611	1219.9624	-1264.2605	350.85028	1069.8468	-1259.35583	384.06323	960.83594	-1284.31433	461.40192	843.62299	-1271.44495	404.03146	839.87561	-1289.10547	447.07559	766.3222	-1298.77844	413.61417	1397.13538	-868.91418	381.77475	1194.87048	-762.07086	404.00616	1069.7113	-754.63922	465.95929	962.59357	-734.84619	570.69214	873.85596	-772.47467	535.06335	861.52625	-728.12823	593.71924	801.12341	-735.93097	469.79248	940.57617	-1121.99829	462.80368	936.33606	-904.06158	282.6167	949.87177	-1079.48682	277.49088	954.65961	-934.97125	543.24829	634.64276	-1190.51807	568.90411	502.83383	-1177.54431	474.64224	339.92758	-1189.35193	390.07715	136.77988	-1147.26306	345.16205	116.52263	-1089.06042	511.75824	57.40136	-1166.90979	385.21191	602.3653	-869.80847	381.99966	443.73911	-902.36578	307.55051	282.90094	-909.44635	259.98819	85.36599	-973.77313	210.14041	54.82964	-1029.45752	396.26364	36.85051	-970.7475	479.129	1717.70654	-970.17444	1973.00732	1023.91376	-3102.00708	2012.55505	1022.02466	-3140.72852	NaN	NaN	NaN	NaN	NaN	NaN
